<svg width="31" height="22" viewBox="0 0 31 22" fill="none" xmlns="http://www.w3.org/2000/svg">
<path fill-rule="evenodd" clip-rule="evenodd" d="M6.08136 0.534973C3.08948 0.534592 3.09979 3.58006 6.08136 3.58006C9.07092 3.58006 9.07092 0.534973 6.08136 0.534973ZM6.08136 2.92416C4.47694 2.92416 4.45214 1.23756 6.08136 1.23756C7.73794 1.23756 7.73794 2.92416 6.08136 2.92416Z" fill="white"/>
<path fill-rule="evenodd" clip-rule="evenodd" d="M17.9524 0.558105C20.0604 0.558105 20.0709 2.71338 17.9524 2.71338C15.8362 2.71338 15.8361 0.558105 17.9524 0.558105ZM17.9524 2.05731C18.7806 2.05731 18.7806 1.21417 17.9524 1.21417C17.1244 1.21417 17.1242 2.05769 17.9524 2.05731Z" fill="white"/>
<path fill-rule="evenodd" clip-rule="evenodd" d="M13.5676 2.78344C11.4492 2.78344 11.4598 4.93872 13.5676 4.93872C15.686 4.93872 15.6756 2.78344 13.5676 2.78344ZM13.5676 4.28265C12.7337 4.28303 12.7649 3.43951 13.5676 3.43951C14.3958 3.43951 14.3958 4.28265 13.5676 4.28265Z" fill="white"/>
<path d="M27.9697 3.79085C21.5067 1.02326 14.0054 6.67208 18.9862 10.4905H18.8792L14.3162 10.7249L12.9972 7.72645C12.5933 6.61178 10.0351 7.00057 10.3949 8.12464C10.8641 9.52929 11.356 10.9309 11.7852 12.3411C12.0827 13.3186 13.2831 13.3037 14.4944 13.2313L12.5695 15.1756L11.8207 13.7936C11.4748 13.1872 10.242 12.9856 9.3612 13.1142C7.40045 13.3952 3.15823 13.9808 1.3402 14.2151C-0.797504 14.5078 -0.217107 16.6336 1.94617 16.3702L7.82811 15.8315L9.7175 19.2281C11.7308 22.4253 19.142 22.0481 21.6955 19.4624L23.9056 17.2135C25.5811 15.5269 25.1176 13.3484 23.0144 11.9897C30.1045 12.8083 34.1278 6.42796 27.9697 3.79085Z" fill="white"/>
<path d="M14.1736 7.0938C14.034 7.43015 13.8955 7.76649 13.7459 8.10102L14.7085 10.3264L15.8849 10.2561L16.7406 7.51536C17.2246 6.40182 14.6371 5.9975 14.1736 7.0938Z" fill="white"/>
<path d="M4.44153 17.799C3.50817 17.9105 2.64142 17.3546 2.87295 16.745L7.50737 16.2999L8.11337 17.4477L4.44153 17.799Z" fill="white"/>
<path d="M7.07953 6.57847C6.7943 6.81279 6.47353 7.00004 6.11694 7.18748C6.7585 7.32801 7.4003 7.6326 7.75692 8.17134C8.22043 7.96055 8.68373 7.70288 9.07587 7.37493C8.68372 6.60202 7.61413 6.55509 7.07953 6.57847Z" fill="white"/>
<path d="M6.93693 8.42897C6.47342 8.63992 6.15264 8.87408 6.04571 9.17866C5.08332 8.96787 4.26327 8.9912 3.58587 9.08483C3.72834 8.56948 4.12054 8.05413 4.97618 7.60901C5.5111 7.63256 6.47342 7.77307 6.93693 8.42897Z" fill="white"/>
<path d="M4.47716 11.2869C4.97623 10.959 5.72499 10.631 6.7231 10.631C6.43788 10.3264 6.22403 10.0688 6.1171 9.8346C4.97621 9.48329 4.12083 9.60028 3.5859 9.74097C3.5859 10.3113 3.95837 10.8408 4.47716 11.2869Z" fill="white"/>
<path d="M7.68556 5.99285C8.4343 6.03975 9.21834 6.27391 9.71767 6.83615C10.0019 6.57938 10.2152 6.3458 10.4283 6.1125L10.4306 6.11001C11.2902 5.13432 8.9085 4.37348 8.1849 5.38388C8.02747 5.59022 7.88097 5.80022 7.68556 5.99285Z" fill="white"/>
<path d="M7.50731 11.3338C6.22395 11.0292 5.36825 11.4743 5.01195 11.7553C5.35014 12.0299 6.1704 12.8797 6.79443 12.8797L8.71934 12.6923C9.00457 12.6689 9.1115 12.4346 8.89764 12.2941C8.39857 11.9663 7.89945 11.6383 7.50731 11.3338Z" fill="white"/>
</svg>
