<svg width="102" height="102" viewBox="0 0 102 102" fill="none" xmlns="http://www.w3.org/2000/svg">
<path fill-rule="evenodd" clip-rule="evenodd" d="M62.6966 33.4255C63.4838 31.6601 62.6909 29.5907 60.9255 28.8035C59.1601 28.0162 57.0907 28.8091 56.3034 30.5745L39.8034 67.5745C39.0162 69.3399 39.8091 71.4093 41.5745 72.1966C43.3399 72.9838 45.4093 72.1909 46.1966 70.4255L62.6966 33.4255ZM66.4352 66.3816C65.1199 64.9651 65.2019 62.7505 66.6184 61.4352L77.8564 51L66.6184 40.5648C65.2019 39.2495 65.1199 37.0349 66.4352 35.6184C67.7505 34.2019 69.9651 34.1199 71.3816 35.4352L85.3816 48.4352C86.0948 49.0975 86.5 50.0268 86.5 51C86.5 51.9733 86.0948 52.9026 85.3816 53.5648L71.3816 66.5648C69.9651 67.8801 67.7505 67.7981 66.4352 66.3816ZM35.5648 35.6184C36.8801 37.0349 36.7981 39.2495 35.3816 40.5648L24.1436 51L35.3816 61.4352C36.7981 62.7505 36.8801 64.9651 35.5648 66.3816C34.2495 67.7981 32.0349 67.8801 30.6184 66.5648L16.6184 53.5648C15.9052 52.9025 15.5 51.9733 15.5 51C15.5 50.0268 15.9052 49.0975 16.6184 48.4352L30.6184 35.4352C32.0349 34.1199 34.2495 34.202 35.5648 35.6184Z" fill="url(#paint0_linear_10_734)"/>
<defs>
<linearGradient id="paint0_linear_10_734" x1="15.478" y1="28.2676" x2="86.522" y2="72.2693" gradientUnits="userSpaceOnUse">
<stop stop-color="#FF0000"/>
<stop offset="1" stop-color="#FFB800"/>
</linearGradient>
</defs>
</svg>
