<svg width="102" height="102" viewBox="0 0 102 102" fill="none" xmlns="http://www.w3.org/2000/svg">
<path fill-rule="evenodd" clip-rule="evenodd" d="M50.5001 10.5C48.8432 10.5 47.5001 11.8431 47.5001 13.5C47.5001 15.1569 48.8432 16.5 50.5001 16.5C52.1569 16.5 53.5001 15.1569 53.5001 13.5C53.5001 11.8431 52.1569 10.5 50.5001 10.5ZM40.5001 13.5C40.5001 7.97715 44.9772 3.5 50.5001 3.5C56.0229 3.5 60.5001 7.97715 60.5001 13.5C60.5001 17.4042 58.2626 20.7859 55.0001 22.4327V27.2679L69.9856 35.9199L73.1975 34.0655C72.4433 30.0253 74.2544 25.7724 78.0162 23.6005C82.785 20.8472 88.883 22.4811 91.6363 27.25C94.3896 32.0189 92.7556 38.1168 87.9868 40.8701C84.6838 42.7771 80.7432 42.5794 77.718 40.6932L73.5526 43.0981V59.9019L76.9305 61.8522C80.0344 59.4727 84.3888 59.0526 87.9868 61.1299C92.7556 63.8832 94.3896 69.9811 91.6363 74.75C88.883 79.5188 82.785 81.1528 78.0162 78.3995C74.541 76.3931 72.7306 72.6106 73.0696 68.8606L69.1196 66.5801L55.0001 74.732V79.5673C58.2626 81.2141 60.5001 84.5958 60.5001 88.5C60.5001 94.0229 56.0229 98.5 50.5001 98.5C44.9772 98.5 40.5001 94.0229 40.5001 88.5C40.5001 84.2085 43.2034 80.5483 47.0001 79.1296V74.732L32.8805 66.5801L27.9652 69.418C28.086 72.9811 26.2869 76.4925 22.9839 78.3995C18.2151 81.1528 12.1171 79.5189 9.36384 74.75C6.61054 69.9811 8.24447 63.8832 13.0133 61.1299C16.7751 58.9581 21.3638 59.5161 24.4856 62.1893L28.4475 59.9019V43.0981L23.7475 40.3846C20.6694 42.5531 16.4885 42.8764 13.0133 40.8701C8.24448 38.1168 6.61055 32.0188 9.36385 27.25C12.1172 22.4811 18.2151 20.8472 22.9839 23.6005C26.5819 25.6778 28.3954 29.6589 27.8866 33.5366L32.0145 35.9199L47.0001 27.2679V22.8704C43.2034 21.4517 40.5001 17.7915 40.5001 13.5ZM35.4475 42.0207V59.9793L51.0001 68.9585L66.5526 59.9793V42.0207L51.0001 33.0415L35.4475 42.0207ZM16.5133 34.8079C15.0925 33.9876 14.6057 32.1708 15.426 30.75C16.2463 29.3292 18.0631 28.8424 19.4839 29.6627C20.9047 30.483 21.3915 32.2998 20.5712 33.7206C19.7509 35.1414 17.9342 35.6282 16.5133 34.8079ZM15.426 71.25C16.2463 72.6708 18.0631 73.1576 19.4839 72.3373C20.9047 71.517 21.3915 69.7002 20.5712 68.2794C19.7509 66.8586 17.9341 66.3718 16.5133 67.1921C15.0925 68.0124 14.6057 69.8292 15.426 71.25ZM47.5001 88.5C47.5001 86.8431 48.8432 85.5 50.5001 85.5C52.1569 85.5 53.5001 86.8431 53.5001 88.5C53.5001 90.1569 52.1569 91.5 50.5001 91.5C48.8432 91.5 47.5001 90.1569 47.5001 88.5ZM80.4289 68.2794C79.6086 69.7002 80.0954 71.517 81.5162 72.3373C82.937 73.1576 84.7538 72.6708 85.5741 71.25C86.3944 69.8292 85.9076 68.0124 84.4868 67.1921C83.066 66.3718 81.2492 66.8586 80.4289 68.2794ZM84.4868 34.8079C83.066 35.6282 81.2492 35.1414 80.4289 33.7206C79.6086 32.2998 80.0954 30.483 81.5162 29.6627C82.937 28.8424 84.7538 29.3292 85.5741 30.75C86.3944 32.1708 85.9076 33.9876 84.4868 34.8079Z" fill="url(#paint0_linear_10_682)"/>
<defs>
<linearGradient id="paint0_linear_10_682" x1="8.00006" y1="3" x2="93.0001" y2="98" gradientUnits="userSpaceOnUse">
<stop stop-color="#00C2FF"/>
<stop offset="1" stop-color="#000AFF"/>
</linearGradient>
</defs>
</svg>
