<svg width="102" height="102" viewBox="0 0 102 102" fill="none" xmlns="http://www.w3.org/2000/svg">
<path d="M58.8819 72.7166C60.4462 72.9467 62.0272 72.4234 63.1452 71.3054L68.2963 66.1543L38.3552 36.2131L33.2041 41.3643C32.0861 42.4823 31.5627 44.0633 31.7929 45.6276L33.0417 54.1164C33.5762 57.7492 32.3609 61.4207 29.7645 64.0171L19.9704 73.8111C17.008 76.7735 17.008 81.5766 19.9704 84.539V84.539C22.9329 87.5015 27.7359 87.5015 30.6984 84.539L40.4924 74.745C43.0888 72.1486 46.7603 70.9333 50.393 71.4677L58.8819 72.7166Z" stroke="url(#paint0_linear_10_602)" stroke-width="7"/>
<path d="M56.0331 18.5355C57.9857 16.5829 61.1515 16.5829 63.1041 18.5355L63.4521 18.8835C65.1035 20.5349 65.9508 22.8254 65.7717 25.1539L65.3468 30.6777L70.8705 30.2528C73.199 30.0736 75.4896 30.921 77.1409 32.5723L85.9742 41.4056C87.9268 43.3582 87.9268 46.524 85.9742 48.4767L74.6605 59.7904L44.7194 29.8492L56.0331 18.5355Z" stroke="url(#paint1_linear_10_602)" stroke-width="7"/>
<defs>
<linearGradient id="paint0_linear_10_602" x1="38.2235" y1="31.8009" x2="21.5073" y2="97.836" gradientUnits="userSpaceOnUse">
<stop stop-color="#80FF1D"/>
<stop offset="1" stop-color="#10CA00"/>
</linearGradient>
<linearGradient id="paint1_linear_10_602" x1="45.156" y1="42.7711" x2="75.466" y2="17.5584" gradientUnits="userSpaceOnUse">
<stop stop-color="#ADFF86"/>
<stop offset="1" stop-color="#D4FF79"/>
</linearGradient>
</defs>
</svg>
