<svg width="12" height="13" viewBox="0 0 12 13" fill="none" xmlns="http://www.w3.org/2000/svg">
<path d="M9.3858 7.58511L11.0755 5.89511C12.3082 4.66272 12.3082 2.65699 11.0755 1.4246C9.843 0.191801 7.83742 0.191801 6.60491 1.4246L4.16641 3.86312C2.93376 5.09552 2.93376 7.10124 4.16641 8.33364C4.34841 8.51577 4.5476 8.67017 4.7584 8.79843L6.06385 7.49284C5.81519 7.43337 5.57932 7.30791 5.38573 7.11444C4.82547 6.55418 4.82547 5.64245 5.38573 5.08232L7.82422 2.64379C8.38448 2.08353 9.2962 2.08353 9.85633 2.64379C10.4166 3.20406 10.4166 4.11565 9.85633 4.67592L9.13994 5.39245C9.43514 6.08724 9.51673 6.85138 9.3858 7.58511Z" fill="black"/>
<path d="M2.6143 5.41499L0.924587 7.10485C-0.308196 8.33738 -0.308196 10.343 0.924587 11.5755C2.15697 12.8082 4.16267 12.8082 5.39519 11.5755L7.83356 9.13698C9.06621 7.90445 9.06607 5.89886 7.83356 4.66646C7.65169 4.48433 7.4525 4.32993 7.2417 4.20166L5.93625 5.50726C6.18478 5.56686 6.42064 5.69206 6.61437 5.88566C7.17463 6.44592 7.17463 7.35752 6.61437 7.91778L4.17574 10.3563C3.61548 10.9166 2.7039 10.9166 2.14364 10.3563C1.58338 9.79604 1.58338 8.88445 2.14364 8.32418L2.86016 7.60778C2.56483 6.91299 2.48323 6.14872 2.6143 5.41499Z" fill="black"/>
</svg>
