<svg width="31" height="32" viewBox="0 0 31 32" fill="none" xmlns="http://www.w3.org/2000/svg">
<path fill-rule="evenodd" clip-rule="evenodd" d="M6.08136 5.27938e-08C3.08948 -0.000562797 3.09979 4.49959 6.08136 4.49959C9.07092 4.49959 9.07092 5.27938e-08 6.08136 5.27938e-08ZM6.08136 3.5304C4.47694 3.5304 4.45214 1.03818 6.08136 1.03818C7.73794 1.03818 7.73794 3.5304 6.08136 3.5304Z" fill="black"/>
<path fill-rule="evenodd" clip-rule="evenodd" d="M17.9524 0.0341801C20.0604 0.0341801 20.0709 3.21893 17.9524 3.21893C15.8362 3.21893 15.8361 0.0341801 17.9524 0.0341801ZM17.9524 2.24949C18.7806 2.24949 18.7806 1.00362 17.9524 1.00362C17.1244 1.00362 17.1242 2.25005 17.9524 2.24949Z" fill="black"/>
<path fill-rule="evenodd" clip-rule="evenodd" d="M13.5676 3.32246C11.4492 3.32246 11.4598 6.50721 13.5676 6.50721C15.686 6.50721 15.6756 3.32246 13.5676 3.32246ZM13.5676 5.53777C12.7337 5.53833 12.7649 4.2919 13.5676 4.2919C14.3958 4.2919 14.3958 5.53777 13.5676 5.53777Z" fill="black"/>
<path d="M27.5 5.53777C21 1.76458 14.0569 10.1071 18.9862 14.7109H18.8792L14.3162 15.0571L12.9972 10.6265C12.5933 8.97941 10.0351 9.55392 10.3949 11.2149C10.8641 13.2905 11.356 15.3616 11.7852 17.4454C12.0827 18.8898 13.2831 18.8677 14.4944 18.7608L12.5695 21.6338L11.8207 19.5916C11.4748 18.6956 10.242 18.3977 9.3612 18.5877C7.40045 19.003 3.15823 19.8683 1.3402 20.2145C-0.797504 20.6471 -0.217107 23.7881 1.94617 23.399L7.82811 22.603L9.7175 27.622C11.7308 32.3464 18.8792 32.5 22.5 26.5C24.7569 23.1067 24.5 18.7608 23.0144 16.9261C30 17.9643 34 9.31096 27.5 5.53777Z" fill="black"/>
<path d="M14.1736 9.69167C14.034 10.1887 13.8955 10.6857 13.7459 11.18L14.7085 14.4683L15.8849 14.3645L16.7406 10.3146C17.2246 8.66916 14.6371 8.07173 14.1736 9.69167Z" fill="black"/>
<path d="M4.44153 25.5103C3.50817 25.675 2.64142 24.8536 2.87295 23.9527L7.50737 23.295L8.11337 24.9912L4.44153 25.5103Z" fill="black"/>
<path d="M7.07953 8.9302C6.7943 9.27644 6.47353 9.55313 6.11694 9.83011C6.7585 10.0378 7.4003 10.4878 7.75692 11.2839C8.22043 10.9724 8.68373 10.5917 9.07587 10.1071C8.68372 8.965 7.61413 8.89565 7.07953 8.9302Z" fill="black"/>
<path d="M6.93693 11.6646C6.47342 11.9763 6.15264 12.3223 6.04571 12.7724C5.08332 12.4609 4.26327 12.4954 3.58587 12.6337C3.72834 11.8722 4.12054 11.1107 4.97618 10.453C5.5111 10.4878 6.47342 10.6954 6.93693 11.6646Z" fill="black"/>
<path d="M4.47716 15.8876C4.97623 15.4031 5.72499 14.9184 6.7231 14.9184C6.43788 14.4684 6.22403 14.0876 6.1171 13.7416C4.97621 13.2225 4.12083 13.3954 3.5859 13.6033C3.5859 14.446 3.95837 15.2284 4.47716 15.8876Z" fill="black"/>
<path d="M7.68556 8.06485C8.4343 8.13416 9.21834 8.48016 9.71767 9.31096C10.0019 8.93154 10.2152 8.58639 10.4283 8.24166L10.4306 8.23798C11.2902 6.79624 8.9085 5.67199 8.1849 7.165C8.02747 7.46991 7.88097 7.78021 7.68556 8.06485Z" fill="black"/>
<path d="M7.50731 15.9569C6.22395 15.5068 5.36825 16.1645 5.01195 16.5798C5.35014 16.9855 6.1704 18.2412 6.79443 18.2412L8.71934 17.9643C9.00457 17.9297 9.1115 17.5835 8.89764 17.3758C8.39857 16.8915 7.89945 16.4069 7.50731 15.9569Z" fill="black"/>
</svg>
