<svg width="102" height="102" viewBox="0 0 102 102" fill="none" xmlns="http://www.w3.org/2000/svg">
<path fill-rule="evenodd" clip-rule="evenodd" d="M53.9237 33.6355L53.0763 40.584L61.2519 41.581C58.8265 46.9941 58.8265 54.0059 61.2519 59.419L52.1763 60.5257L53.0237 67.4743C65.4747 65.9558 78.5 66.7736 78.5 50.5C78.5 34.5648 66.175 35.1296 53.9237 33.6355ZM69 42.5346C65.0672 44.7463 64.9998 55.9175 68.9562 58.4391C68.9722 58.4493 68.9868 58.458 69 58.4654C73.0808 56.1703 72.8044 44.6742 69 42.5346Z" fill="black"/>
<path fill-rule="evenodd" clip-rule="evenodd" d="M53.9237 33.6355L53.0763 40.584L61.2519 41.581C58.8265 46.9941 58.8265 54.0059 61.2519 59.419L52.1763 60.5257L53.0237 67.4743C65.4747 65.9558 78.5 66.7736 78.5 50.5C78.5 34.5648 66.175 35.1296 53.9237 33.6355ZM69 42.5346C65.0672 44.7463 64.9998 55.9175 68.9562 58.4391C68.9722 58.4493 68.9868 58.458 69 58.4654C73.0808 56.1703 72.8044 44.6742 69 42.5346Z" fill="url(#paint0_linear_10_630)"/>
<path fill-rule="evenodd" clip-rule="evenodd" d="M66.9734 17.4764C67.0695 17.4857 67.1522 17.4944 67.221 17.502C73.3728 17.6143 78.0868 22.407 81.0696 28.1802C84.1801 34.2004 86 42.2739 86 50.9999C86 59.726 84.1801 67.7995 81.0696 73.8197C78.0903 79.5861 73.3839 84.3743 67.2428 84.4975C67.2196 84.5003 67.1949 84.5032 67.1688 84.5063C67.1219 84.5117 67.0703 84.5176 67.0143 84.5237C66.7331 84.5543 66.3373 84.5922 65.8429 84.6261C64.8557 84.6937 63.4669 84.7463 61.8081 84.6923C58.5131 84.5851 54.0322 84.0542 49.4886 82.2986C45.2562 80.6633 40.9223 77.9438 37.5047 73.5H33C24.9919 73.5 18.5 67.0081 18.5 59V42C18.5 33.9919 24.9919 27.5 33 27.5H38.5771C41.7946 23.7972 45.664 21.4169 49.4551 19.9072C53.9934 18.0998 58.4713 17.5157 61.7667 17.3695C63.4254 17.2958 64.8142 17.3319 65.8017 17.3879C66.2962 17.4159 66.6922 17.4491 66.9734 17.4764ZM67 24.5C66.4818 24.5 65.9256 24.5972 65.3437 24.8049C63.3752 25.514 61.1526 27.5161 59.1493 31.3933C56.6499 36.231 55 43.1575 55 50.9999C55 58.8424 56.6499 65.7689 59.1493 70.6066C61.7408 75.6223 64.6995 77.4999 67 77.4999C69.3005 77.4999 72.2592 75.6223 74.8507 70.6066C77.3501 65.7689 79 58.8424 79 50.9999C79 43.1575 77.3501 36.231 74.8507 31.3933C72.2592 26.3776 69.3005 24.4999 67 24.5ZM44.314 69.0421C43.1051 67.4851 41.2813 66.5 39.31 66.5H33C28.8579 66.5 25.5 63.1421 25.5 59V42C25.5 37.8579 28.8579 34.5 33 34.5H39.2954C41.2748 34.5 43.0897 33.4895 44.4012 32.007C46.6562 29.4581 49.3194 27.4958 52.0449 26.4104C52.7813 26.1172 53.5202 25.8633 54.2537 25.6438C53.6972 26.4745 53.18 27.3417 52.7037 28.2322C49.4603 34.2952 47.5 42.4279 47.5 51.1926C47.5 59.9583 49.4608 68.0053 52.716 73.9833C53.1926 74.8586 53.7092 75.7089 54.2641 76.5219C53.5161 76.3084 52.7624 76.0592 52.0114 75.769C49.2585 74.7053 46.5767 71.956 44.314 69.0421Z" fill="black"/>
<path fill-rule="evenodd" clip-rule="evenodd" d="M66.9734 17.4764C67.0695 17.4857 67.1522 17.4944 67.221 17.502C73.3728 17.6143 78.0868 22.407 81.0696 28.1802C84.1801 34.2004 86 42.2739 86 50.9999C86 59.726 84.1801 67.7995 81.0696 73.8197C78.0903 79.5861 73.3839 84.3743 67.2428 84.4975C67.2196 84.5003 67.1949 84.5032 67.1688 84.5063C67.1219 84.5117 67.0703 84.5176 67.0143 84.5237C66.7331 84.5543 66.3373 84.5922 65.8429 84.6261C64.8557 84.6937 63.4669 84.7463 61.8081 84.6923C58.5131 84.5851 54.0322 84.0542 49.4886 82.2986C45.2562 80.6633 40.9223 77.9438 37.5047 73.5H33C24.9919 73.5 18.5 67.0081 18.5 59V42C18.5 33.9919 24.9919 27.5 33 27.5H38.5771C41.7946 23.7972 45.664 21.4169 49.4551 19.9072C53.9934 18.0998 58.4713 17.5157 61.7667 17.3695C63.4254 17.2958 64.8142 17.3319 65.8017 17.3879C66.2962 17.4159 66.6922 17.4491 66.9734 17.4764ZM67 24.5C66.4818 24.5 65.9256 24.5972 65.3437 24.8049C63.3752 25.514 61.1526 27.5161 59.1493 31.3933C56.6499 36.231 55 43.1575 55 50.9999C55 58.8424 56.6499 65.7689 59.1493 70.6066C61.7408 75.6223 64.6995 77.4999 67 77.4999C69.3005 77.4999 72.2592 75.6223 74.8507 70.6066C77.3501 65.7689 79 58.8424 79 50.9999C79 43.1575 77.3501 36.231 74.8507 31.3933C72.2592 26.3776 69.3005 24.4999 67 24.5ZM44.314 69.0421C43.1051 67.4851 41.2813 66.5 39.31 66.5H33C28.8579 66.5 25.5 63.1421 25.5 59V42C25.5 37.8579 28.8579 34.5 33 34.5H39.2954C41.2748 34.5 43.0897 33.4895 44.4012 32.007C46.6562 29.4581 49.3194 27.4958 52.0449 26.4104C52.7813 26.1172 53.5202 25.8633 54.2537 25.6438C53.6972 26.4745 53.18 27.3417 52.7037 28.2322C49.4603 34.2952 47.5 42.4279 47.5 51.1926C47.5 59.9583 49.4608 68.0053 52.716 73.9833C53.1926 74.8586 53.7092 75.7089 54.2641 76.5219C53.5161 76.3084 52.7624 76.0592 52.0114 75.769C49.2585 74.7053 46.5767 71.956 44.314 69.0421Z" fill="url(#paint1_linear_10_630)"/>
<defs>
<linearGradient id="paint0_linear_10_630" x1="52.1763" y1="33.6355" x2="78.4832" y2="55.2187" gradientUnits="userSpaceOnUse">
<stop stop-color="#FFDEFC"/>
<stop offset="1" stop-color="#FF6782"/>
</linearGradient>
<linearGradient id="paint1_linear_10_630" x1="18.5" y1="17.328" x2="71.8367" y2="73.6748" gradientUnits="userSpaceOnUse">
<stop stop-color="#FF95F4"/>
<stop offset="1" stop-color="#FB4061"/>
</linearGradient>
</defs>
</svg>
