<svg width="102" height="102" viewBox="0 0 102 102" fill="none" xmlns="http://www.w3.org/2000/svg">
<g clip-path="url(#clip0_10_452)">
<path d="M51.5 89.5L58.5696 84.6747C73.8559 74.2412 83 56.929 83 38.4215V18C83 15.2386 80.7614 13 78 13H51" stroke="url(#paint0_linear_10_452)" stroke-width="7" stroke-linecap="round"/>
<path fill-rule="evenodd" clip-rule="evenodd" d="M22.5 18C22.5 17.1716 23.1716 16.5 24 16.5H51C52.933 16.5 54.5 14.933 54.5 13C54.5 11.067 52.933 9.5 51 9.5H24C19.3056 9.5 15.5 13.3056 15.5 18V38.5423C15.5 58.1354 25.146 76.4727 41.2915 87.5728L49.0171 92.8841C50.61 93.9792 52.789 93.5757 53.8841 91.9828C54.9792 90.39 54.5757 88.211 52.9828 87.1159L45.2572 81.8045C31.0111 72.0103 22.5 55.8304 22.5 38.5423V18ZM54.5 26C54.5 24.067 52.933 22.5 51 22.5C49.067 22.5 47.5 24.067 47.5 26L47.5 75C47.5 76.933 49.067 78.5 51 78.5C52.933 78.5 54.5 76.933 54.5 75L54.5 26Z" fill="url(#paint1_linear_10_452)"/>
</g>
<defs>
<linearGradient id="paint0_linear_10_452" x1="51" y1="89" x2="103.5" y2="6.5" gradientUnits="userSpaceOnUse">
<stop stop-color="#9BEAFF"/>
<stop offset="1" stop-color="#BFF1FF"/>
</linearGradient>
<linearGradient id="paint1_linear_10_452" x1="15.5" y1="9.5" x2="68.0988" y2="35.2559" gradientUnits="userSpaceOnUse">
<stop stop-color="#1D92FF"/>
<stop offset="1" stop-color="#00D1FF"/>
</linearGradient>
<clipPath id="clip0_10_452">
<rect width="72" height="85" fill="white" transform="translate(15 9)"/>
</clipPath>
</defs>
</svg>
