<svg width="28" height="28" viewBox="0 0 28 28" fill="none" xmlns="http://www.w3.org/2000/svg">
<path d="M14.4689 2.70802L17.1528 9.96101C17.3047 10.3716 17.6284 10.6953 18.039 10.8472L25.292 13.5311C25.7273 13.6922 25.7273 14.3078 25.292 14.4689L18.039 17.1528C17.6284 17.3047 17.3047 17.6284 17.1528 18.039L14.4689 25.292C14.3078 25.7273 13.6922 25.7273 13.5311 25.292L10.8472 18.039C10.6953 17.6284 10.3716 17.3047 9.96101 17.1528L2.70802 14.4689C2.27272 14.3078 2.27271 13.6922 2.70802 13.5311L9.96101 10.8472C10.3716 10.6953 10.6953 10.3716 10.8472 9.96101L13.5311 2.70802C13.6922 2.27272 14.3078 2.27271 14.4689 2.70802Z" stroke="black"/>
<path d="M13.0621 25.4655L10.3783 18.2126C10.277 17.9388 10.0612 17.723 9.78748 17.6217L2.53449 14.9379C1.66387 14.6157 1.66388 13.3844 2.5345 13.0622L9.78748 10.3784C10.0612 10.2771 10.277 10.0613 10.3783 9.78754L13.0621 2.53455C13.2232 2.09924 13.6116 1.88159 14 1.88159V26.1185C13.6116 26.1185 13.2232 25.9009 13.0621 25.4655Z" fill="black"/>
</svg>
