<svg width="26" height="26" viewBox="0 0 26 26" fill="none" xmlns="http://www.w3.org/2000/svg">
<path d="M12.5311 1.70802C12.6922 1.27272 13.3078 1.27271 13.4689 1.70802L16.1528 8.96101C16.3047 9.37158 16.6284 9.6953 17.039 9.84723L24.292 12.5311C24.7273 12.6922 24.7273 13.3078 24.292 13.4689L17.039 16.1528C16.6284 16.3047 16.3047 16.6284 16.1528 17.039L13.4689 24.292C13.3078 24.7273 12.6922 24.7273 12.5311 24.292L9.84723 17.039C9.6953 16.6284 9.37158 16.3047 8.96101 16.1528L1.70802 13.4689C1.27272 13.3078 1.27271 12.6922 1.70802 12.5311L8.96101 9.84723C9.37158 9.6953 9.6953 9.37158 9.84723 8.96101L12.5311 1.70802Z" stroke="black"/>
</svg>
